<svg width="46" height="46" viewBox="0 0 46 46" fill="none" xmlns="http://www.w3.org/2000/svg">
    <path d="M20.4895 26.8915C20.5603 26.9622 20.6 27.0582 20.6 27.1582C20.6 27.2583 20.5603 27.3542 20.4895 27.425C20.4188 27.4957 20.3228 27.5355 20.2228 27.5355C20.1227 27.5355 20.0268 27.4957 19.956 27.425L15.688 23.157C15.6173 23.0862 15.5775 22.9903 15.5775 22.8902C15.5775 22.7902 15.6173 22.6942 15.688 22.6235L19.956 18.3555C20.0268 18.2847 20.1227 18.245 20.2228 18.245C20.3228 18.245 20.4188 18.2847 20.4895 18.3555C20.5603 18.4262 20.6 18.5222 20.6 18.6222C20.6 18.7223 20.5603 18.8182 20.4895 18.889L16.8655 22.5131L29.8258 22.5125C29.8754 22.5125 29.9245 22.5223 29.9703 22.5413C30.0162 22.5603 30.0578 22.5881 30.0929 22.6232C30.128 22.6582 30.1558 22.6999 30.1748 22.7457C30.1937 22.7915 30.2035 22.8406 30.2035 22.8902C30.2035 22.9398 30.1937 22.989 30.1748 23.0348C30.1558 23.0806 30.128 23.1222 30.0929 23.1573C30.0578 23.1924 30.0162 23.2202 29.9703 23.2392C29.9245 23.2582 29.8754 23.268 29.8258 23.268L16.8655 23.2674L20.4895 26.8915Z" fill="white" fill-opacity="0.8"/>
    <circle cx="23" cy="23" r="22" transform="rotate(-180 23 23)" fill="white" fill-opacity="0.05"/>
    <circle cx="23" cy="23" r="22.5" transform="rotate(-180 23 23)" stroke="white" stroke-opacity="0.8"/>
</svg>
